<?xml version="1.0" encoding="UTF-8"?>
<svg version="1.1" xmlns="http://www.w3.org/2000/svg" width="512" height="512">
<path d="M0 0 C2.31 0 4.62 0 7 0 C8.22425895 2.4485179 8.29892823 4.35422828 8.52490234 7.08764648 C8.66057114 8.69148697 8.66057114 8.69148697 8.79898071 10.32772827 C8.89367645 11.49703888 8.98837219 12.66634949 9.0859375 13.87109375 C9.18748138 15.08471588 9.28902527 16.29833801 9.39364624 17.54873657 C9.61138009 20.15720597 9.8276398 22.76574758 10.04138184 25.37454224 C10.37371727 29.42967685 10.71220747 33.48428238 11.05175781 37.53881836 C11.87838158 47.42146226 12.69506384 57.30492358 13.51074219 67.18847656 C13.85928814 71.41010549 14.21112645 75.63144575 14.56573486 79.85256958 C14.74687894 82.02506851 14.92312904 84.19792817 15.09912109 86.37084961 C15.20562988 87.6419458 15.31213867 88.91304199 15.421875 90.22265625 C15.51049805 91.30297119 15.59912109 92.38328613 15.69042969 93.49633789 C15.85769919 95.99379527 15.85769919 95.99379527 17 98 C23.57489981 97.71967481 26.76442881 95.32007025 31.625 91.0625 C33.02869473 89.87611983 34.4336613 88.69124298 35.83984375 87.5078125 C36.53577637 86.91645508 37.23170898 86.32509766 37.94873047 85.71582031 C40.95915446 83.19769846 44.06173133 80.80988997 47.1875 78.4375 C50.0655842 76.2466092 52.92039461 74.06656857 55.6953125 71.74609375 C58 70 58 70 60.6875 69.625 C63 70 63 70 65 72 C64.83072074 77.67424083 63.31593775 80.46752605 59.5625 84.625 C58.64487182 85.66858688 57.72957733 86.71422955 56.81640625 87.76171875 C56.11281982 88.56101807 56.11281982 88.56101807 55.39501953 89.37646484 C52.71628284 92.49400054 50.25511681 95.77820152 47.77636719 99.05517578 C45.60304695 101.92454355 43.39816048 104.75339796 41.11328125 107.53515625 C40.41041992 108.40539429 40.41041992 108.40539429 39.69335938 109.29321289 C38.79384889 110.40503711 37.88284801 111.50769303 36.95898438 112.59936523 C35.55694447 114.28354237 35.55694447 114.28354237 34 117 C34.33461375 119.63871026 34.33461375 119.63871026 35 122 C44.78746048 124.07685137 54.59536808 125.53070001 64.5234375 126.75390625 C65.72486389 126.90193695 66.92629028 127.04996765 68.16412354 127.20248413 C73.18508232 127.81638908 78.2068897 128.42288611 83.22949219 129.02319336 C86.93257625 129.46776198 90.63427168 129.92270203 94.3359375 130.37890625 C95.47847992 130.51228897 96.62102234 130.64567169 97.79818726 130.78309631 C99.3722081 130.978563 99.3722081 130.978563 100.97802734 131.17797852 C101.90239594 131.28884293 102.82676453 131.39970734 103.77914429 131.51393127 C106 132 106 132 108 134 C108.125 137.125 108.125 137.125 108 140 C104.65679347 141.93691956 101.63733087 142.50839672 97.82617188 143.03735352 C96.57807739 143.21416153 95.32998291 143.39096954 94.04406738 143.57313538 C92.68563974 143.75847654 91.32720032 143.94373141 89.96875 144.12890625 C88.57147927 144.32476048 87.17430427 144.52129881 85.77722168 144.7184906 C82.103669 145.23541239 78.42904834 145.74428345 74.75408936 146.25109863 C68.87199843 147.06370668 62.99162494 147.88864961 57.11122131 148.71336174 C55.05978447 148.99992036 53.00790829 149.28313989 50.95593262 149.56581116 C49.70783813 149.73946701 48.45974365 149.91312286 47.17382812 150.09204102 C46.07558716 150.24367203 44.97734619 150.39530304 43.8458252 150.55152893 C41.50966428 150.91968246 39.27795382 151.37445851 37 152 C36.3534144 156.80501848 36.80464374 159.2350154 39.7109375 163.1640625 C40.91599095 164.66428222 42.13829661 166.15076197 43.375 167.625 C44.00680176 168.4089917 44.63860352 169.1929834 45.28955078 170.00073242 C47.1792099 172.34546891 49.0876553 174.67375194 51 177 C52.97614845 179.42383291 54.93172576 181.86228466 56.875 184.3125 C57.67679688 185.29863281 58.47859375 186.28476562 59.3046875 187.30078125 C61.14638155 190.23306371 61.57164174 191.6109811 61 195 C59 197 59 197 56 197.1875 C51.10020945 196.32699959 48.15454319 192.8647378 44.67578125 189.5390625 C41.1659148 186.20853229 37.44783602 183.18784824 33.6796875 180.15625 C31.91840266 178.73900622 30.17289193 177.30189044 28.4453125 175.84375 C27.65898437 175.1940625 26.87265625 174.544375 26.0625 173.875 C25.02802734 173.00488281 25.02802734 173.00488281 23.97265625 172.1171875 C22.05613203 170.74704002 22.05613203 170.74704002 19.87670898 171.43017578 C19.25739502 171.61821777 18.63808105 171.80625977 18 172 C15.92752575 183.61633728 14.46496495 195.27004878 13.24609375 207.00390625 C13.17226093 207.71183697 13.09842812 208.41976768 13.02235794 209.14915085 C12.32939563 215.80557936 11.6492809 222.46329863 10.97680664 229.12182617 C10.60468658 232.80142491 10.22407308 236.48006504 9.83821297 240.15824699 C9.69412517 241.5489987 9.55340078 242.94010321 9.41613579 244.33154488 C9.22605726 246.25772067 9.02433252 248.1827366 8.82202148 250.10766602 C8.71115707 251.20063492 8.60029266 252.29360382 8.48606873 253.41969299 C8 256 8 256 6 258 C2.875 258.125 2.875 258.125 0 258 C-2.39311273 251.12868623 -2.78850387 244.12796314 -3.40234375 236.9140625 C-3.52602051 235.5298254 -3.65051226 234.14566091 -3.77577209 232.76156616 C-4.23655955 227.65096701 -4.68329593 222.53916115 -5.12921143 217.42724609 C-5.56629461 212.42210554 -6.00986067 207.41760961 -6.46484375 202.4140625 C-6.527216 201.72694435 -6.58958824 201.0398262 -6.65385056 200.33188629 C-7.59286901 190.11086446 -8.85726939 180.04518212 -11 170 C-12.79787373 169.2687641 -12.79787373 169.2687641 -15 169 C-17.04768982 169.87386732 -17.04768982 169.87386732 -19.01953125 171.359375 C-19.78765137 171.89336914 -20.55577148 172.42736328 -21.34716797 172.97753906 C-22.16072754 173.56245117 -22.97428711 174.14736328 -23.8125 174.75 C-25.07151123 175.63123535 -25.07151123 175.63123535 -26.35595703 176.53027344 C-30.41846282 179.38841825 -34.43244502 182.30637659 -38.41015625 185.28125 C-39.08264404 185.78301758 -39.75513184 186.28478516 -40.44799805 186.80175781 C-41.70273376 187.74475696 -42.95071955 188.69682711 -44.19067383 189.65917969 C-47.39463691 192.08677145 -49.93008653 193.74743445 -54 194 C-55.875 192.9375 -55.875 192.9375 -57 191 C-56.80216486 185.15956274 -54.05184251 181.87829916 -50.5625 177.5 C-49.47431035 176.08666849 -48.38708882 174.67259111 -47.30078125 173.2578125 C-46.75115723 172.54915039 -46.2015332 171.84048828 -45.63525391 171.11035156 C-43.13952122 167.88952246 -40.67450992 164.64975511 -38.25 161.375 C-37.82017822 160.82005859 -37.39035645 160.26511719 -36.94750977 159.69335938 C-34.17868825 155.92762484 -33.81973863 153.58549829 -34 149 C-34.78038635 148.91674469 -35.56077271 148.83348938 -36.36480713 148.74771118 C-43.72248634 147.96137235 -51.0793107 147.16762528 -58.43529129 146.36556435 C-62.21701428 145.95348741 -65.99900126 145.54427244 -69.78173828 145.14160156 C-73.43292251 144.75282778 -77.08321904 144.35653191 -80.7330246 143.95502853 C-82.12496774 143.80324023 -83.51720843 143.65415521 -84.90973663 143.50783157 C-86.86149232 143.30227656 -88.8121287 143.08617679 -90.76269531 142.86962891 C-91.8730011 142.74971588 -92.98330688 142.62980286 -94.1272583 142.5062561 C-96.84103075 142.02801475 -98.70653459 141.50902659 -101 140 C-101.9375 137.5625 -101.9375 137.5625 -102 135 C-100.32610731 132.64451944 -99.23937206 132.0566267 -96.4085083 131.38694763 C-95.37039001 131.27528763 -94.33227173 131.16362762 -93.26269531 131.04858398 C-92.08427063 130.9151207 -90.90584595 130.78165741 -89.69171143 130.64414978 C-88.41672791 130.51279129 -87.14174438 130.3814328 -85.828125 130.24609375 C-83.82497212 130.02241065 -81.82181989 129.79872159 -79.81870651 129.5746851 C-77.00940948 129.26372829 -74.19889236 128.96468903 -71.38830566 128.66564941 C-65.81666939 128.07117615 -60.24712049 127.45795616 -54.67824554 126.83821297 C-52.74082507 126.62523801 -50.80245233 126.42098358 -48.86407471 126.21690369 C-43.04088863 125.57978806 -37.55574988 124.88868815 -32 123 C-31.59567345 119.63673825 -31.86764975 118.21072356 -33.6953125 115.30078125 C-34.49710937 114.31464844 -35.29890625 113.32851562 -36.125 112.3125 C-37.04591612 111.1617329 -37.96646827 110.01067447 -38.88671875 108.859375 C-39.63767822 107.9322168 -39.63767822 107.9322168 -40.40380859 106.98632812 C-43.90791511 102.62575752 -47.3021993 98.17770647 -50.72363281 93.75219727 C-53.54879668 90.10993649 -56.39645291 86.49687608 -59.33984375 82.94921875 C-59.85361572 82.32200928 -60.3673877 81.6947998 -60.89672852 81.04858398 C-61.85253374 79.88567447 -62.81980984 78.73205821 -63.80053711 77.59008789 C-66.02741809 74.86242304 -66.97746124 73.21336688 -67.3515625 69.671875 C-67 67 -67 67 -66 66 C-62.54091224 65.63794555 -60.60109561 65.62934072 -57.60546875 67.4765625 C-56.80753906 68.18554688 -56.00960937 68.89453125 -55.1875 69.625 C-54.23875 70.44484375 -53.29 71.2646875 -52.3125 72.109375 C-51.52746094 72.79870117 -51.52746094 72.79870117 -50.7265625 73.50195312 C-47.43474185 76.35809163 -44.05474764 79.10862897 -40.6875 81.875 C-39.9663501 82.46974121 -39.2452002 83.06448242 -38.50219727 83.67724609 C-33.75121777 87.58819426 -28.96289685 91.44710161 -24.125 95.25 C-23.54838623 95.70358887 -22.97177246 96.15717773 -22.37768555 96.62451172 C-19.96513878 98.51018882 -17.54950151 100.30033232 -15 102 C-12.21144878 101.60428244 -12.21144878 101.60428244 -10 100 C-9.77576879 98.55880872 -9.61265301 97.10803564 -9.47509766 95.65600586 C-9.33942131 94.25606133 -9.33942131 94.25606133 -9.20100403 92.82783508 C-9.10631332 91.80054794 -9.01162262 90.7732608 -8.9140625 89.71484375 C-8.81256393 88.64715256 -8.71106537 87.57946136 -8.60649109 86.47941589 C-8.27443101 82.96588499 -7.94953724 79.45173314 -7.625 75.9375 C-7.39870488 73.52652777 -7.1723864 71.11555773 -6.94604492 68.70458984 C-5.41095456 52.20190248 -4.06104059 35.69149941 -2.98876953 19.15209961 C-2.93566116 18.37490067 -2.8825528 17.59770172 -2.82783508 16.79695129 C-2.68738042 14.74016788 -2.55487963 12.68284545 -2.4230957 10.62548828 C-1.98233405 6.84862125 -1.14368525 3.61443022 0 0 Z " fill="#000000" transform="translate(251,126)"/>
<path d="M0 0 C3.82401419 2.61778153 6.56684858 5.90960667 9.328125 9.59375 C9.88628906 10.33496094 10.44445312 11.07617188 11.01953125 11.83984375 C11.45136719 12.41863281 11.88320312 12.99742187 12.328125 13.59375 C12.70324219 13.0884375 13.07835937 12.583125 13.46484375 12.0625 C17.69690716 6.68980489 17.69690716 6.68980489 21.203125 6.15625 C21.904375 6.300625 22.605625 6.445 23.328125 6.59375 C24.30158833 9.18965222 24.5519101 10.96861118 23.609375 13.6015625 C21.91261588 17.0850604 20.32225578 20.05661813 17.328125 22.59375 C16.668125 22.59375 16.008125 22.59375 15.328125 22.59375 C15.493125 23.356875 15.658125 24.12 15.828125 24.90625 C16.48823687 29.77457506 16.8005949 34.69287577 16.328125 39.59375 C15.668125 40.25375 15.008125 40.91375 14.328125 41.59375 C11.358125 41.09875 11.358125 41.09875 8.328125 40.59375 C7.338125 36.30375 6.348125 32.01375 5.328125 27.59375 C4.2865625 27.61695313 3.245 27.64015625 2.171875 27.6640625 C-6.75713973 27.79845971 -15.2765625 27.27715501 -24.1171875 26.04296875 C-31.5632254 24.94351898 -31.5632254 24.94351898 -38.671875 26.59375 C-38.36556524 29.42711529 -38.04793341 31.15501519 -36.171875 33.34375 C-28.66994785 37.09471358 -17.82370974 35.90188687 -9.58398438 36.11132812 C-8.59333984 36.14548828 -7.60269531 36.17964844 -6.58203125 36.21484375 C-5.23830444 36.25242798 -5.23830444 36.25242798 -3.86743164 36.29077148 C-1.671875 36.59375 -1.671875 36.59375 0.328125 38.59375 C0.578125 41.09375 0.578125 41.09375 0.328125 43.59375 C-2.53956046 46.46143546 -5.45839805 45.94723145 -9.3046875 46.0078125 C-10.05652313 46.02717865 -10.80835876 46.0465448 -11.58297729 46.0664978 C-13.98749399 46.12634147 -16.39205844 46.17269726 -18.796875 46.21875 C-20.42580228 46.25692546 -22.05470928 46.29597693 -23.68359375 46.3359375 C-27.67952306 46.43204666 -31.67554687 46.51605941 -35.671875 46.59375 C-36.001875 47.25375 -36.331875 47.91375 -36.671875 48.59375 C-33.44642323 52.53596883 -29.29400925 53.40725083 -24.3762207 53.97265625 C-23.21179443 54.03324219 -22.04736816 54.09382813 -20.84765625 54.15625 C-19.57212891 54.23101562 -18.29660156 54.30578125 -16.98242188 54.3828125 C-14.974643 54.49028845 -12.96672353 54.59466055 -10.95874023 54.69824219 C-9.0046396 54.80185253 -7.0511284 54.91639811 -5.09765625 55.03125 C-3.93661377 55.09183594 -2.77557129 55.15242188 -1.5793457 55.21484375 C1.328125 55.59375 1.328125 55.59375 4.328125 57.59375 C3.998125 59.57375 3.668125 61.55375 3.328125 63.59375 C0.44451518 64.41026775 -2.17136222 64.73640106 -5.1640625 64.8046875 C-23.66919339 65.11186767 -23.66919339 65.11186767 -40.671875 71.59375 C-42.984375 71.28125 -42.984375 71.28125 -44.671875 70.59375 C-45.166875 68.11875 -45.166875 68.11875 -45.671875 65.59375 C-43.361875 63.61375 -41.051875 61.63375 -38.671875 59.59375 C-39.435 59.078125 -40.198125 58.5625 -40.984375 58.03125 C-44.23457465 55.0833945 -45.37576568 52.77010227 -46.671875 48.59375 C-46.44634786 45.71827899 -45.93887179 43.36524655 -45 40.65234375 C-44.57569415 37.99032964 -45.25724952 37.09598267 -46.671875 34.84375 C-49.14139101 30.22308764 -49.08013283 27.64691044 -47.671875 22.59375 C-44.75810738 18.87060248 -42.17132573 16.93125796 -37.671875 15.59375 C-34.82287775 15.58532101 -32.12408603 15.67641554 -29.296875 15.90625 C-28.56726563 15.95458984 -27.83765625 16.00292969 -27.0859375 16.05273438 C-23.74203394 16.288599 -20.4763159 16.62376908 -17.16015625 17.1328125 C-13.1488897 17.66285668 -9.27266592 17.70428091 -5.234375 17.65625 C-4.50283203 17.65173828 -3.77128906 17.64722656 -3.01757812 17.64257812 C-1.23564081 17.63093148 0.54625363 17.61300191 2.328125 17.59375 C-1.33615621 11.73252142 -5.04637086 7.6635945 -11.96875 6.0625 C-13.86084668 5.82095574 -15.76715413 5.69578862 -17.671875 5.59375 C-18.661875 8.23375 -19.651875 10.87375 -20.671875 13.59375 C-23.046875 13.28125 -23.046875 13.28125 -25.671875 12.59375 C-28.01096807 9.0851104 -28.08478557 7.72285567 -27.671875 3.59375 C-26.23404453 -0.04311532 -24.96318912 -1.22789442 -21.609375 -3.28125 C-14.14790497 -6.00876215 -6.71470927 -3.63185533 0 0 Z " fill="#000000" transform="translate(60.671875,220.40625)"/>
<path d="M0 0 C4.33611673 1.88789178 6.4261118 4.74564436 8.3671875 8.98828125 C9.6941921 12.62724108 10.87528681 16.29511692 12 20 C15.40668426 33.78016533 15.40668426 33.78016533 23.984375 44.21875 C26.65633054 45.25439168 28.29396839 44.80449588 31 44 C31.33 43.67 31.66 43.34 32 43 C30.68 42.34 29.36 41.68 28 41 C27.875 38.25 27.875 38.25 29 35 C32.13231649 32.93683213 35.27947309 31.52285511 39 31 C42.39966024 32.3448656 43.71167236 33.50197953 45.546875 36.671875 C49.88639761 47.77428999 49.88639761 47.77428999 50 53 C48 55 48 55 45.625 55.4375 C43 55 43 55 40.6875 52.5 C40.130625 51.675 39.57375 50.85 39 50 C38.360625 50.639375 37.72125 51.27875 37.0625 51.9375 C33.06190528 54.63177808 29.78708136 55.21385587 25 55 C19.17768272 53.15626619 14.60318013 50.45420746 11.2265625 45.28515625 C7.16282079 37.10811501 4.10508262 28.86455259 1.48486328 20.10961914 C-0.43548114 13.72782349 -0.43548114 13.72782349 -5 9 C-5.66 9 -6.32 9 -7 9 C-8.54169043 16.06743349 -7.19392341 20.13213037 -4.125 26.5625 C0.77152546 37.08250948 0.77152546 37.08250948 1 43 C-1 45 -1 45 -3.625 45.125 C-4.40875 45.08375 -5.1925 45.0425 -6 45 C-11.20622676 36.48071984 -14.5130803 27.31520046 -18 18 C-20.41339891 19.98959408 -20.41339891 19.98959408 -20.375 23.875 C-20.1981627 31.73162846 -17.03319444 38.97040864 -13.625 45.9375 C-11.90372622 49.60688208 -11.90372622 49.60688208 -12.75 53.0625 C-13.1625 53.701875 -13.575 54.34125 -14 55 C-16.1875 55 -16.1875 55 -19 54 C-21.74211459 50.29443974 -23.79844125 46.40564054 -25.8828125 42.30859375 C-26.39074341 41.32366943 -26.39074341 41.32366943 -26.90893555 40.31884766 C-27.58039819 39.00907314 -28.23878423 37.69248837 -28.88208008 36.36865234 C-31.83139557 30.57828072 -35.58825005 27.6078333 -41 24 C-40.67 22.35 -40.34 20.7 -40 19 C-32.25 18.875 -32.25 18.875 -30 20 C-29.6596875 18.4221875 -29.6596875 18.4221875 -29.3125 16.8125 C-28.14665952 12.7932038 -26.35036202 10.5889161 -23 8 C-17.83544304 6.58227848 -17.83544304 6.58227848 -15 8 C-14.7525 7.236875 -14.505 6.47375 -14.25 5.6875 C-11.34712027 -0.55369142 -6.36058693 -1.23767766 0 0 Z " fill="#000000" transform="translate(157,40)"/>
<path d="M0 0 C2.5 0.125 2.5 0.125 5 1 C7.66043527 4.29387224 7.22177938 7.93404474 7 12 C6.67 12.99 6.34 13.98 6 15 C6.763125 14.67 7.52625 14.34 8.3125 14 C14.43598792 12.33939311 20.40519964 12.10361442 26.4375 14.1875 C30.74266825 17.23261901 32.68807173 19.35528728 33.6875 24.625 C33.14090684 34.04050806 24.35444125 42.09660319 18.57421875 48.859375 C9.01840408 60.15789989 9.01840408 60.15789989 6 74 C7.32 74.33 8.64 74.66 10 75 C11.74975467 73.53956606 11.74975467 73.53956606 13 71 C12.89840578 68.61676897 12.56129184 66.36844763 12.12890625 64.0234375 C12.08636719 63.35570312 12.04382813 62.68796875 12 62 C14 60 14 60 16.4375 59.6875 C19 60 19 60 20.75 61.3125 C23.56469313 65.11233573 23.46494194 69.47112112 23 74 C21.18690252 79.13710953 18.50298859 81.9691423 14 85 C9.79025132 86.22465416 7.53136421 86.15310494 3.3125 84.9375 C-0.6975018 82.59202725 -2.1263107 81.27201161 -4 77 C-4.31350876 72.97578095 -4.23457066 69.02679635 -4 65 C-5.30324219 64.76216797 -5.30324219 64.76216797 -6.6328125 64.51953125 C-13.42463353 63.14445339 -18.18177959 62.09354729 -23 57 C-22.67 55.35 -22.34 53.7 -22 52 C-18.79544422 50.92707778 -17.23979237 51.03879168 -14.1875 52.4375 C-9.70194686 54.22840477 -5.90179875 54.9568531 -1.16308594 53.39428711 C5.00759796 50.62060375 8.3166714 46.51157169 12.25 41.125 C12.848125 40.33480469 13.44625 39.54460937 14.0625 38.73046875 C15.73577035 36.5056115 17.37276739 34.25864912 19 32 C19.44408203 31.40541992 19.88816406 30.81083984 20.34570312 30.19824219 C21.61621625 28.48917831 21.61621625 28.48917831 23 26 C22.505 24.515 22.505 24.515 22 23 C16.09990426 21.42036444 12.23376649 23.15370203 7 26 C2.31217657 29.42144459 -1.56546176 33.09820111 -4.6875 38 C-7 41 -7 41 -10.1875 41.5625 C-13 41 -13 41 -15 39 C-14.72548197 34.45430433 -12.4303286 30.98426972 -10.125 27.1875 C-5.60078168 19.46600729 -2.77047566 13.14325089 -2.30859375 4.1015625 C-2 2 -2 2 0 0 Z " fill="#000000" transform="translate(355,30)"/>
<path d="M0 0 C3.40460167 1.9189573 5.45048085 3.32057067 6.6953125 7.125 C7.50519907 12.22556225 7.06035167 15.69638046 4 20 C-0.91586251 25.13911338 -6.2078874 27.65646732 -12.8125 30.0625 C-14.58968848 30.74179892 -16.36574708 31.42406173 -18.140625 32.109375 C-18.98173828 32.43228516 -19.82285156 32.75519531 -20.68945312 33.08789062 C-29.19460658 36.26543256 -29.19460658 36.26543256 -36 42 C-36.3606631 44.05363606 -36.3606631 44.05363606 -36.1875 46.1875 C-36.125625 47.445625 -36.06375 48.70375 -36 50 C-28.79963559 50.60003037 -24.15917112 48.64042381 -18.62109375 44.01171875 C-16.93091855 42.48024545 -15.25147599 40.93685784 -13.58203125 39.3828125 C0.123726 26.73453425 0.123726 26.73453425 9.5 25.5625 C14.03769062 26.12971133 16.26212049 27.36149682 20 30 C22.61324139 34.14993151 22.67715832 38.23511767 22 43 C19.91047603 47.10442208 18.23622421 49.2809525 14 51 C9.43853865 51.87660737 5.55401767 52.0018667 1.5703125 49.43359375 C-0.39685727 47.70094422 -2.23287787 45.93494937 -4 44 C-4.75023437 44.66386719 -5.50046875 45.32773437 -6.2734375 46.01171875 C-14.80839713 53.43647396 -22.57493992 60.02902848 -34.515625 59.421875 C-39.28904902 58.61129356 -41.90385529 56.35191181 -44.875 52.6875 C-46.59253435 48.58450127 -46.77459091 45.1863453 -45.2734375 40.94921875 C-40.0317051 29.6347476 -29.80628167 25.73703764 -18.6887207 21.58959961 C-17.30200247 21.08277631 -15.91259731 20.58322769 -14.52026367 20.09204102 C-10.73894606 18.74214417 -7.27262657 17.34989352 -4 15 C-3.11341534 12.40877257 -3.11341534 12.40877257 -3 10 C-7.455 9.01 -7.455 9.01 -12 8 C-12.495 6.02 -12.495 6.02 -13 4 C-9.59483813 -0.37806526 -5.28332467 -0.83317736 0 0 Z M3 37 C3.54708727 39.53744315 3.54708727 39.53744315 5 42 C7.90351124 43.16448881 7.90351124 43.16448881 11 43 C13.04451019 41.95625978 13.04451019 41.95625978 14 40 C14.07642709 37.88850355 14.07642709 37.88850355 13 36 C9.26259859 32.81628769 6.83643999 34.73301273 3 37 Z " fill="#000000" transform="translate(82,325)"/>
<path d="M0 0 C4.05549932 2.1028515 6.32004909 3.76957815 8 8 C8.70857092 12.99295322 8.55152691 16.91664358 6.25 21.4375 C3.33431132 24.75814544 1.19562054 26.60145982 -3 28 C-4.85227252 28.09357692 -6.7078718 28.12993909 -8.5625 28.125 C-9.53316406 28.12757813 -10.50382812 28.13015625 -11.50390625 28.1328125 C-14 28 -14 28 -16 27 C-15.65066406 27.53109375 -15.30132812 28.0621875 -14.94140625 28.609375 C-14.25884766 29.66898437 -14.25884766 29.66898437 -13.5625 30.75 C-13.11003906 31.44609375 -12.65757812 32.1421875 -12.19140625 32.859375 C-9.81057482 37.13706557 -9.66520074 41.14541078 -10 46 C-11.63548768 50.17049359 -13.57269378 53.10821038 -17 56 C-22.44994787 57.81664929 -27.25350778 57.85736891 -32.4375 55.3125 C-35.19462183 52.82436567 -36.24379481 51.61298033 -37 48 C-36.86565759 44.17124126 -36.54931967 41.80285182 -34.375 38.625 C-31.29660472 36.51872954 -28.67700184 36.2828463 -25 36 C-24.67 37.65 -24.34 39.3 -24 41 C-25.32 41.66 -26.64 42.32 -28 43 C-28 44.98 -28 46.96 -28 49 C-25.66928121 49.41870553 -25.66928121 49.41870553 -23 49 C-20.28264098 47.18775608 -20.28264098 47.18775608 -19 44 C-19.34956479 37.30648169 -23.4520132 32.7690367 -28.140625 28.39453125 C-36.10413935 21.72563193 -44.6108119 15.6547822 -53.4609375 10.21875 C-55 9 -55 9 -56 6 C-54.5625 3.3125 -54.5625 3.3125 -53 1 C-49.20428671 1.58613386 -46.41261164 2.6797295 -43.0859375 4.58203125 C-42.15910156 5.10216797 -41.23226563 5.62230469 -40.27734375 6.15820312 C-38.36517933 7.24811111 -36.45370318 8.33922763 -34.54296875 9.43164062 C-26.03736348 14.20064551 -16.08918984 19.59935781 -6 19 C-2.82254838 17.76278995 -2.82254838 17.76278995 -1 15 C-0.960008 13.00039988 -0.95653201 10.99952758 -1 9 C-2.65 9 -4.3 9 -6 9 C-6.2475 9.969375 -6.495 10.93875 -6.75 11.9375 C-8 15 -8 15 -10 16 C-10.66 16 -11.32 16 -12 16 C-14.35858628 13.64141372 -14.36946499 12.92368052 -14.5 9.6875 C-14.3998107 5.80516476 -14.10145936 5.12428772 -11.5 1.9375 C-7.81516358 -0.56540776 -4.31207217 -0.93628659 0 0 Z " fill="#000000" transform="translate(467,343)"/>
<path d="M0 0 C0.495 1.98 0.495 1.98 1 4 C-0.12279462 4.98169476 -1.24831473 5.96027298 -2.375 6.9375 C-3.00148438 7.48277344 -3.62796875 8.02804687 -4.2734375 8.58984375 C-6 10 -6 10 -8 11 C-10.37776095 23.89823155 -9.09569437 37.94728747 -9 51 C-7.8553125 51.185625 -7.8553125 51.185625 -6.6875 51.375 C-4 52 -4 52 -1 54 C-0.8125 57.125 -0.8125 57.125 -1 60 C-4.25644609 60.98680184 -5.90934001 61.02681338 -9.22265625 60.046875 C-18.05899879 57.59791967 -27.08163154 57.82416671 -35.1953125 62.171875 C-37 63 -37 63 -40 62.8125 C-42 62 -42 62 -43 61 C-43.04063832 59.33382885 -43.042721 57.66611905 -43 56 C-35.16172753 50.94866885 -27.17690976 49.31098711 -18 48 C-18 36.45 -18 24.9 -18 13 C-19.98 13 -21.96 13 -24 13 C-23.98839844 14.24394531 -23.97679687 15.48789062 -23.96484375 16.76953125 C-23.80279714 41.20419571 -23.80279714 41.20419571 -27 46 C-29.625 46.1875 -29.625 46.1875 -32 46 C-35.4328893 35.70133211 -32.68322597 21.76080897 -32 11 C-32.93070313 10.86078125 -33.86140625 10.7215625 -34.8203125 10.578125 C-38.2612264 9.95250429 -40.29974159 9.22374222 -43 7 C-43.4375 4.4375 -43.4375 4.4375 -43 2 C-41 0 -41 0 -38.3125 -0.3125 C-35 0 -35 0 -31.9375 1.5 C-25.74669338 4.35624411 -18.27027208 3.97498795 -11.85546875 2.0625 C-9.9986059 1.34660107 -8.15694148 0.58888965 -6.33984375 -0.22265625 C-3.73520628 -1.08796987 -2.53880504 -0.93226328 0 0 Z " fill="#000000" transform="translate(274,440)"/>
<path d="M0 0 C5.48864957 3.13637118 8.82170571 5.69985541 11.0625 11.75 C12.30006696 17.93783479 12.249893 22.83117189 10.0625 28.75 C11.13177734 28.89695312 11.13177734 28.89695312 12.22265625 29.046875 C19.32314774 30.15543087 24.8399297 31.5274297 30.0625 36.75 C29.6875 39.375 29.6875 39.375 29.0625 41.75 C25.12419801 41.21779703 21.47757242 40.27941705 17.6875 39.125 C11.28883015 37.35386208 7.05910095 37.67574683 0.75 39.9375 C-2.6302618 42.21721145 -3.41006412 43.98377953 -4.9375 47.75 C-5.43551873 51.56485271 -5.43551873 51.56485271 -5.5 55.5 C-5.72777356 62.54027356 -5.72777356 62.54027356 -7.9375 64.75 C-10.5625 64.875 -10.5625 64.875 -12.9375 64.75 C-15.9444496 58.25498886 -15.99579035 51.02752089 -14.28515625 44.11328125 C-12.06581741 38.50302126 -8.68211056 35.31954346 -3.9375 31.75 C0.77095142 27.69550017 2.71478116 23.27096158 3.5625 17.125 C2.92400855 12.81518268 1.39489586 11.44765379 -1.9375 8.75 C-5.65242147 6.89253927 -9.88313892 7.3078193 -13.9375 7.75 C-17.80317334 9.57740922 -19.5068598 11.13095471 -21.9375 14.625 C-23.15354532 17.71416024 -23.15354532 17.71416024 -22.625 20.9375 C-20.23955283 24.91324529 -17.28093449 25.59848481 -12.9375 26.75 C-12.89495644 28.74954746 -12.89669217 30.75041636 -12.9375 32.75 C-13.9375 33.75 -13.9375 33.75 -17.6875 34 C-21.58534074 33.93735613 -23.83683348 33.24775914 -26.9375 30.75 C-31.48974566 25.565498 -32.36262947 22.45489171 -32.2734375 15.640625 C-31.74427711 11.08738441 -30.07126619 8.0561983 -26.9375 4.75 C-19.26191517 -1.23815081 -9.39128239 -3.81456062 0 0 Z " fill="#000000" transform="translate(364.9375,413.25)"/>
<path d="M0 0 C3.03841041 1.26519019 5.44916229 2.939708 8 5 C8.825 5.598125 9.65 6.19625 10.5 6.8125 C10.995 7.204375 11.49 7.59625 12 8 C12.28875 7.21625 12.5775 6.4325 12.875 5.625 C14 3 14 3 16 1 C19.125 0.875 19.125 0.875 22 1 C23.28125 3.015625 23.28125 3.015625 24 6 C22.92496039 8.86780799 21.24506471 11.24809783 19.5 13.75 C19.06429687 14.43449219 18.62859375 15.11898437 18.1796875 15.82421875 C15.83532596 19.2859222 14.79368568 20.77376249 10.65625 21.953125 C9.34140625 21.97632813 9.34140625 21.97632813 8 22 C7.31164062 20.95199219 7.31164062 20.95199219 6.609375 19.8828125 C5.99578125 18.97273438 5.3821875 18.06265625 4.75 17.125 C4.14671875 16.22007812 3.5434375 15.31515625 2.921875 14.3828125 C0.23652555 11.05341582 -1.76324849 10.18419703 -5.9375 9.5625 C-10.08196584 10.15456655 -11.38981515 11.80977407 -14 15 C-16.23199744 18.08228218 -16.51050982 21.23922805 -16.34765625 25.02734375 C-16.06030907 27.26646365 -16.06030907 27.26646365 -14.375 30 C-9.60650431 32.82577522 -5.51643327 32.23562185 -0.08203125 31.8828125 C0.93503906 31.92148438 1.95210937 31.96015625 3 32 C5 35 5 35 4.953125 37.171875 C3.55303657 41.32623574 1.22514642 44.65683705 -1.25 48.25 C-1.72824219 48.9821875 -2.20648438 49.714375 -2.69921875 50.46875 C-6.27902433 55.70748987 -6.27902433 55.70748987 -9.734375 57.109375 C-12 57 -12 57 -14 55 C-13.72832465 50.20040219 -12.74562195 46.93937062 -10 43 C-10.99580078 42.56300781 -10.99580078 42.56300781 -12.01171875 42.1171875 C-18.42705563 39.13897271 -22.75494969 36.49010062 -26 30 C-26.88697068 21.28234536 -26.22797298 14.20471899 -21 7 C-14.58376184 0.25331181 -9.29169626 -1.0595794 0 0 Z " fill="#000000" transform="translate(70,117)"/>
<path d="M0 0 C1 1 1 1 1.06933594 3.05371094 C0.97743714 5.95327642 0.87107672 8.85149668 0.75 11.75 C0.70939453 13.25433594 0.70939453 13.25433594 0.66796875 14.7890625 C0.29218823 23.92901456 0.29218823 23.92901456 -3 28 C-4.65 27.67 -6.3 27.34 -8 27 C-8.66 24.69 -9.32 22.38 -10 20 C-10.98113243 21.29017414 -11.95984199 22.58219106 -12.9375 23.875 C-13.48277344 24.59429687 -14.02804687 25.31359375 -14.58984375 26.0546875 C-16.03964624 27.94357079 -16.03964624 27.94357079 -17 30 C-16.38125 30.268125 -15.7625 30.53625 -15.125 30.8125 C-13 32 -13 32 -11 35 C-10.875 37.6875 -10.875 37.6875 -11 40 C-13.68856424 41.00821159 -15.41703215 41.22736824 -18.11328125 40.17578125 C-20.10794931 39.16604698 -22.0646772 38.11893353 -24 37 C-24.23847656 37.69867188 -24.47695313 38.39734375 -24.72265625 39.1171875 C-26.23084699 42.52099414 -28.17999423 45.16688899 -30.4375 48.125 C-31.61119141 49.67574219 -31.61119141 49.67574219 -32.80859375 51.2578125 C-36.31034833 55.63968721 -36.31034833 55.63968721 -38 57 C-40.6875 56.6875 -40.6875 56.6875 -43 56 C-42.83727131 48.67720904 -38.97511333 43.92795284 -35 38 C-33.61916655 35.68929893 -32.3074097 33.35333745 -31 31 C-31.495 30.62875 -31.99 30.2575 -32.5 29.875 C-34.59755514 27.25305607 -34.21743835 25.26157528 -34 22 C-29.77213125 20.37389663 -28.96360209 21.34546597 -24 23 C-21.36 19.37 -18.72 15.74 -16 12 C-18.97 12 -21.94 12 -25 12 C-25.33 10.35 -25.66 8.7 -26 7 C-21.6696597 3.82084754 -17.66985591 2.00477315 -12.4375 0.6875 C-11.79103516 0.50638672 -11.14457031 0.32527344 -10.47851562 0.13867188 C-6.66266495 -0.85896152 -3.78291084 -1.20461406 0 0 Z " fill="#000000" transform="translate(281,10)"/>
<path d="M0 0 C2.47265625 1.015625 2.47265625 1.015625 3.9140625 3.78125 C4.28402344 4.93109375 4.65398437 6.0809375 5.03515625 7.265625 C6.82112659 12.72859311 8.58816801 17.04944063 13.47265625 20.37890625 C14.13265625 20.69214844 14.79265625 21.00539063 15.47265625 21.328125 C16.13265625 21.65425781 16.79265625 21.98039062 17.47265625 22.31640625 C19.74885442 23.2356396 19.74885442 23.2356396 23.47265625 23.015625 C23.14265625 22.37625 22.81265625 21.736875 22.47265625 21.078125 C20.79619241 15.94395449 20.59222537 11.08463756 22.72265625 6.078125 C25.10540211 3.2698888 27.18818295 2.19790999 30.83984375 1.6796875 C37.69766834 1.5728678 41.26124119 2.91494839 46.28515625 7.765625 C48.44074005 11.84988905 49.16134699 15.76617358 47.8125 20.171875 C45.0258392 26.21904175 40.94943697 30.00410911 34.67578125 32.47265625 C25.70495093 34.68355237 16.57107977 33.28593257 8.47265625 29.015625 C1.84614994 24.64326357 -2.84337718 18.62527161 -5.140625 10.97265625 C-5.74501589 7.91407206 -5.75716392 5.11819725 -5.52734375 2.015625 C-2.52734375 0.015625 -2.52734375 0.015625 0 0 Z M33.47265625 10.015625 C31.82709926 11.24371591 31.82709926 11.24371591 30.47265625 13.015625 C30.74301772 15.98960116 31.32711651 16.87008526 33.47265625 19.015625 C36.07546193 18.69521103 36.07546193 18.69521103 38.47265625 18.015625 C39.24507894 16.17861711 39.24507894 16.17861711 39.47265625 14.015625 C37.63105952 11.52946942 36.46794914 11.01405596 33.47265625 10.015625 Z " fill="#000000" transform="translate(121.52734375,438.984375)"/>
<path d="M0 0 C1.65 0 3.3 0 5 0 C5.495 3.465 5.495 3.465 6 7 C7.14597656 6.65066406 8.29195313 6.30132812 9.47265625 5.94140625 C11.0025249 5.48150708 12.53247731 5.02188646 14.0625 4.5625 C15.19075195 4.21735352 15.19075195 4.21735352 16.34179688 3.86523438 C20.89720944 2.50452673 25.27585353 1.54581772 30 1 C30.495 3.475 30.495 3.475 31 6 C24.21587553 12.3318495 16.03189486 14.41729711 7 15 C7 17.97 7 20.94 7 24 C8.8871875 23.87625 8.8871875 23.87625 10.8125 23.75 C18.62197379 23.75 26.34646252 26.54141209 32 32 C31.67 33.32 31.34 34.64 31 36 C22.75569133 35.52087184 14.99955473 34.02214499 7 32 C6.814375 33.670625 6.814375 33.670625 6.625 35.375 C6 39 6 39 4 41 C2 40.875 2 40.875 0 40 C-1.94473876 36.95361239 -2.23889517 34.58940402 -2.1953125 31.015625 C-2.18886719 30.08105469 -2.18242187 29.14648438 -2.17578125 28.18359375 C-2.15902344 27.21550781 -2.14226562 26.24742187 -2.125 25.25 C-2.11597656 24.26644531 -2.10695313 23.28289062 -2.09765625 22.26953125 C-2.07412785 19.84610593 -2.04125368 17.42317778 -2 15 C-3.18142578 15.05220703 -3.18142578 15.05220703 -4.38671875 15.10546875 C-12.63643478 15.31049128 -20.08803065 14.40095925 -28 12 C-29 11 -29 11 -29.1875 8.5625 C-29 6 -29 6 -27 4 C-25.1796875 3.953125 -25.1796875 3.953125 -22.875 4.25 C-21.56015625 4.41048828 -21.56015625 4.41048828 -20.21875 4.57421875 C-19.1565625 4.71472656 -18.094375 4.85523438 -17 5 C-15.59390272 5.17441274 -14.18764139 5.34750619 -12.78125 5.51953125 C-8.85271983 6.0019976 -4.92611514 6.49827561 -1 7 C-0.67 4.69 -0.34 2.38 0 0 Z " fill="#000000" transform="translate(468,241)"/>
<path d="M0 0 C4.99306088 4.57299457 8.57878641 11.28227323 10.04296875 17.87109375 C10.11819844 20.20321402 10.13622751 22.53962485 10.04296875 24.87109375 C7.79296875 26.05859375 7.79296875 26.05859375 5.04296875 26.87109375 C2.44885648 25.43584659 1.26583006 24.483147 0.2421875 21.671875 C-0.01111328 20.44017578 -0.01111328 20.44017578 -0.26953125 19.18359375 C-1.98818246 12.86339252 -5.20270134 8.18444641 -10.83984375 4.7109375 C-15.98462356 2.47181268 -21.4294043 2.16053069 -26.95703125 2.87109375 C-30.77740327 4.38108541 -30.77740327 4.38108541 -33.95703125 6.87109375 C-34.29043596 9.82913948 -34.29043596 9.82913948 -33.95703125 12.87109375 C-31.00325627 15.24089388 -31.00325627 15.24089388 -26.95703125 14.87109375 C-26.83328125 13.59234375 -26.70953125 12.31359375 -26.58203125 10.99609375 C-26.20703125 7.12109375 -26.20703125 7.12109375 -23.95703125 4.87109375 C-21.45703125 4.55859375 -21.45703125 4.55859375 -18.95703125 4.87109375 C-16.25865151 8.91866336 -16.30005432 12.11814957 -16.95703125 16.87109375 C-18.64153422 20.3024887 -19.95767039 22.2143709 -23.14453125 24.30859375 C-28.23667533 25.32702257 -32.93607883 24.63456466 -37.76953125 22.80859375 C-41.41361886 19.58097329 -43.68054642 15.72268237 -44.15625 10.81640625 C-43.79917619 5.57252223 -41.71944335 1.51333053 -37.95703125 -2.12890625 C-25.89919141 -10.16746614 -11.46351169 -8.13604989 0 0 Z " fill="#000000" transform="translate(165.95703125,417.12890625)"/>
<path d="M0 0 C2.125 0.9375 2.125 0.9375 4 2 C3.52797514 6.24822374 1.03344482 8.19989709 -2 11 C2.92772031 12.76892524 7.88634986 13.9318153 13 15 C13.875 17.0625 13.875 17.0625 14 20 C12.26080867 22.59005725 10.19602066 24.79124879 8 27 C8.99902344 27.20496094 9.99804688 27.40992188 11.02734375 27.62109375 C12.31769531 27.89050781 13.60804688 28.15992188 14.9375 28.4375 C16.22527344 28.70433594 17.51304687 28.97117188 18.83984375 29.24609375 C22 30 22 30 23 31 C23.5 33.625 23.5 33.625 23 37 C20.90760132 39.61549835 18.53305546 41.81588585 16 44 C16.83144531 44.32613281 17.66289062 44.65226562 18.51953125 44.98828125 C19.60621094 45.42527344 20.69289063 45.86226562 21.8125 46.3125 C22.89144531 46.74175781 23.97039062 47.17101562 25.08203125 47.61328125 C27.69851821 48.85672552 29.30650685 49.67749511 31 52 C30.6875 54.6875 30.6875 54.6875 30 57 C26.10597464 58.05980741 23.92817959 57.94402605 20.20703125 56.41796875 C19.32982422 56.06283203 18.45261719 55.70769531 17.54882812 55.34179688 C16.64583984 54.96087891 15.74285156 54.57996094 14.8125 54.1875 C13.89791016 53.81818359 12.98332031 53.44886719 12.04101562 53.06835938 C5.29546523 50.29546523 5.29546523 50.29546523 3 48 C3 44.1314319 4.43767744 42.31232256 7.0625 39.6875 C8.031875 38.800625 9.00125 37.91375 10 37 C9.08476562 36.80664062 8.16953125 36.61328125 7.2265625 36.4140625 C6.03804688 36.15367187 4.84953125 35.89328125 3.625 35.625 C1.84996094 35.24214844 1.84996094 35.24214844 0.0390625 34.8515625 C-3 34 -3 34 -5 32 C-5 28.1314319 -3.56232256 26.31232256 -0.9375 23.6875 C0.031875 22.800625 1.00125 21.91375 2 21 C-2.95 20.01 -7.9 19.02 -13 18 C-13.33 16.35 -13.66 14.7 -14 13 C-12.11918503 10.64374849 -10.38084306 8.7677767 -8.1875 6.75 C-7.62740234 6.20859375 -7.06730469 5.6671875 -6.49023438 5.109375 C-2.40010649 1.20005324 -2.40010649 1.20005324 0 0 Z " fill="#000000" transform="translate(449,112)"/>
<path d="M0 0 C1.0828125 0.37125 1.0828125 0.37125 2.1875 0.75 C1.68451212 5.15114397 0.09977269 7.46195019 -2.8125 10.75 C-0.99951995 12.56298005 1.79931698 12.42555005 4.25 12.8125 C5.90708984 13.07740234 5.90708984 13.07740234 7.59765625 13.34765625 C8.45230469 13.48042969 9.30695313 13.61320313 10.1875 13.75 C11.46649344 18.18435449 11.46649344 18.18435449 10.19140625 20.76953125 C8.18945312 23.25976562 8.18945312 23.25976562 6.1875 25.75 C10.4775 26.74 14.7675 27.73 19.1875 28.75 C20.1875 33.75 20.1875 33.75 18.97265625 35.76953125 C18.40417969 36.36121094 17.83570313 36.95289063 17.25 37.5625 C16.68410156 38.16707031 16.11820312 38.77164063 15.53515625 39.39453125 C15.09042969 39.84183594 14.64570313 40.28914063 14.1875 40.75 C14.744375 40.93175781 15.30125 41.11351562 15.875 41.30078125 C17.47101819 41.8264967 19.06464521 42.35950803 20.65625 42.8984375 C22.27511833 43.44305678 23.89981868 43.97081879 25.53125 44.4765625 C27.6875 45.1875 27.6875 45.1875 31.1875 46.75 C31.96875 48.72265625 31.96875 48.72265625 32.1875 50.75 C31.6925 51.74 31.6925 51.74 31.1875 52.75 C24.72903469 52.18755107 18.83686738 51.01271535 12.625 49.1875 C11.39813477 48.83655273 11.39813477 48.83655273 10.14648438 48.47851562 C8.15829473 47.90880046 6.17261701 47.33033086 4.1875 46.75 C3.50390625 44.51953125 3.50390625 44.51953125 3.1875 41.75 C4.82858294 38.72639703 6.97429592 36.41487839 9.1875 33.75 C4.5675 33.09 -0.0525 32.43 -4.8125 31.75 C-5.8125 26.75 -5.8125 26.75 -4.59765625 24.51171875 C-4.02917969 23.82722656 -3.46070313 23.14273438 -2.875 22.4375 C-2.30910156 21.74011719 -1.74320312 21.04273438 -1.16015625 20.32421875 C-0.49306641 19.54498047 -0.49306641 19.54498047 0.1875 18.75 C-0.79992187 18.70101562 -1.78734375 18.65203125 -2.8046875 18.6015625 C-4.08601563 18.52679688 -5.36734375 18.45203125 -6.6875 18.375 C-7.96367187 18.30539063 -9.23984375 18.23578125 -10.5546875 18.1640625 C-13.8125 17.75 -13.8125 17.75 -15.8125 15.75 C-15.25766341 9.69723723 -9.28597517 5.18839243 -5.1875 1.1875 C-2.8125 -0.25 -2.8125 -0.25 0 0 Z " fill="#000000" transform="translate(424.8125,128.25)"/>
<path d="M0 0 C3 -0.3125 3 -0.3125 6 0 C6.66 0.66 7.32 1.32 8 2 C7.67679653 6.12879182 6.02003315 9.00059698 3.859375 12.47265625 C3.20686768 13.52855957 2.55436035 14.58446289 1.88208008 15.67236328 C1.17205046 16.80282601 0.46134299 17.93286325 -0.25 19.0625 C-0.97458994 20.2210509 -1.69895316 21.37974362 -2.4230957 22.53857422 C-3.89448562 24.88936841 -5.37164699 27.23641667 -6.85205078 29.58154297 C-8.85416881 32.75803085 -10.81725595 35.9575455 -12.77734375 39.16015625 C-13.9128018 40.98255692 -15.04944836 42.80421784 -16.1875 44.625 C-16.70280273 45.47715088 -17.21810547 46.32930176 -17.74902344 47.20727539 C-18.23790039 47.97676514 -18.72677734 48.74625488 -19.23046875 49.5390625 C-19.85538208 50.54767334 -19.85538208 50.54767334 -20.49291992 51.57666016 C-22 53 -22 53 -24.5480957 53.34130859 C-27 53 -27 53 -29 51 C-29.94840851 46.47617535 -27.85683319 43.67478995 -25.49365234 40.02148438 C-24.98012207 39.25126953 -24.4665918 38.48105469 -23.9375 37.6875 C-22.84400686 36.00458494 -21.7516144 34.32095432 -20.66015625 32.63671875 C-20.07250488 31.73614746 -19.48485352 30.83557617 -18.87939453 29.90771484 C-15.47882593 24.64650777 -12.1838069 19.3192009 -8.875 14 C-7.6021962 11.95793822 -6.32880231 9.91624406 -5.0546875 7.875 C-4.51312012 7.00617188 -3.97155273 6.13734375 -3.41357422 5.2421875 C-2.30151626 3.47825998 -1.15666805 1.73500208 0 0 Z " fill="#000000" transform="translate(100,128)"/>
<path d="M0 0 C2 2 2 2 2 6 C0.91460937 6.32613281 -0.17078125 6.65226562 -1.2890625 6.98828125 C-2.73446001 7.42940906 -4.17976778 7.87083096 -5.625 8.3125 C-6.33785156 8.52583984 -7.05070312 8.73917969 -7.78515625 8.95898438 C-11.1643567 9.99754598 -14.17214486 11.08687684 -17.34375 12.6875 C-20.43895215 14.216894 -21.77313311 14.04398635 -25 13 C-24.875 9.75 -24.875 9.75 -24 6 C-17.569543 0.19690466 -8.39992048 -1.06169999 0 0 Z " fill="#000000" transform="translate(461,266)"/>
<path d="M0 0 C2.5 0.25 2.5 0.25 4.5 2.25 C4.75 4.75 4.75 4.75 4.5 7.25 C2.5 9.25 2.5 9.25 0 9.5 C-2.5 9.25 -2.5 9.25 -4.5 7.25 C-4.75 4.75 -4.75 4.75 -4.5 2.25 C-2.5 0.25 -2.5 0.25 0 0 Z " fill="#000000" transform="translate(183.5,325.75)"/>
</svg>
